<?xml version="1.0" encoding="UTF-8"?>
<svg version="1.1" xmlns="http://www.w3.org/2000/svg" width="512" height="512">
<path d="M0 0 C4.2754376 3.42765852 8.30638565 7.0661918 12.28515625 10.83203125 C13.14882813 11.61964844 14.0125 12.40726563 14.90234375 13.21875 C28.06512437 25.67570035 37.46098014 41.14234478 46.28515625 56.83203125 C47.04321797 58.16205897 47.80228286 59.49151559 48.5625 60.8203125 C49.41521484 62.31111328 49.41521484 62.31111328 50.28515625 63.83203125 C51.46766968 63.80846558 51.46766968 63.80846558 52.67407227 63.78442383 C83.66843913 63.25147273 119.08127883 64.16740841 145.06640625 83.58984375 C148.06067571 86.16942633 148.06067571 86.16942633 151.41015625 85.64453125 C153.32828125 85.24234375 153.32828125 85.24234375 155.28515625 84.83203125 C167.24689595 83.91189743 176.94197117 85.98113654 186.27734375 93.77734375 C193.23950958 100.90205041 196.2898724 109.25793776 196.66015625 119.08203125 C196.4772562 129.03865298 193.15977857 137.56919497 186.28515625 144.83203125 C185.40859375 145.39921875 184.53203125 145.96640625 183.62890625 146.55078125 C180.92617355 148.72388212 180.92617355 148.72388212 180.71875 152.4921875 C180.70222687 153.95954297 180.70472543 155.42719231 180.72265625 156.89453125 C180.06052386 184.25061451 168.61954232 208.66955607 154.94921875 231.84375 C154.40007812 232.82988281 153.8509375 233.81601563 153.28515625 234.83203125 C152.80046875 235.64671875 152.31578125 236.46140625 151.81640625 237.30078125 C151.13428207 240.55090236 152.1525687 242.06673855 153.90307617 244.79101562 C154.3179126 245.40267578 154.73274902 246.01433594 155.16015625 246.64453125 C156.0125409 247.98137186 156.86006482 249.32132205 157.703125 250.6640625 C158.1367334 251.35193848 158.5703418 252.03981445 159.01708984 252.74853516 C171.7345492 273.64395259 182.77359952 301.18432121 181.0625 326.0703125 C181.3644921 329.81607413 182.73891398 330.78061457 185.53515625 333.20703125 C189.70891632 337.11215056 192.28577531 340.49666663 194.28515625 345.83203125 C194.69765625 346.92515625 195.11015625 348.01828125 195.53515625 349.14453125 C197.44697301 358.544297 196.58537812 367.18547252 192.28515625 375.83203125 C186.29779959 384.27785066 178.66619973 390.9600398 168.28515625 392.83203125 C162.62456067 393.10465816 157.16946497 393.31935247 151.66015625 391.89453125 C146.80271083 391.80457856 144.2205306 394.1688601 140.2890625 396.859375 C118.24023455 411.33877437 90.76294621 413.72033912 65.16015625 414.39453125 C63.61587622 414.43782427 62.07160525 414.48144158 60.52734375 414.52539062 C56.78004486 414.63134066 53.03264272 414.73290995 49.28515625 414.83203125 C48.72828125 415.92 48.17140625 417.00796875 47.59765625 418.12890625 C42.97868838 427.06374135 38.20195443 435.67205134 32.28515625 443.83203125 C31.90198242 444.36328613 31.51880859 444.89454102 31.12402344 445.44189453 C16.76635001 465.13061457 -0.77913255 481.92879412 -23.71484375 490.83203125 C-24.82601563 491.26644531 -25.9371875 491.70085937 -27.08203125 492.1484375 C-47.06105151 498.64954727 -69.42040692 496.11303307 -88.02734375 487.01953125 C-98.47610467 481.63694948 -107.19396844 474.90911097 -115.71484375 466.83203125 C-116.66359375 465.95933594 -117.61234375 465.08664062 -118.58984375 464.1875 C-133.20615533 450.44337488 -143.85895009 432.70936403 -152.71484375 414.83203125 C-154.04938599 414.81015747 -154.04938599 414.81015747 -155.41088867 414.7878418 C-189.8366824 414.15933398 -189.8366824 414.15933398 -206.71484375 410.83203125 C-207.42833984 410.6942627 -208.14183594 410.55649414 -208.87695312 410.41455078 C-223.1312241 407.5524467 -235.95888846 401.8783386 -248.26171875 394.21484375 C-252.24298113 391.97062897 -254.36994646 391.64416025 -258.71484375 392.83203125 C-268.64136771 393.66264574 -277.23998287 392.81873252 -285.4453125 386.84375 C-293.85646193 379.65016725 -298.99721962 372.35381775 -299.93359375 361.234375 C-300.28650515 350.77937483 -297.75249809 342.62098203 -290.71484375 334.83203125 C-290.21500977 334.40946045 -289.71517578 333.98688965 -289.20019531 333.55151367 C-285.92878344 330.68441724 -284.8165708 329.42264656 -284.05078125 324.9765625 C-284.04106838 323.53252604 -284.05533907 322.08818808 -284.08984375 320.64453125 C-283.57908491 293.36383499 -271.99897813 268.90931881 -258.37890625 245.8203125 C-257.55519531 244.34111328 -257.55519531 244.34111328 -256.71484375 242.83203125 C-255.9878125 241.61 -255.9878125 241.61 -255.24609375 240.36328125 C-254.56396957 237.11316014 -255.5822562 235.59732395 -257.33276367 232.87304688 C-257.7476001 232.26138672 -258.16243652 231.64972656 -258.58984375 231.01953125 C-259.4422284 229.68269064 -260.28975232 228.34274045 -261.1328125 227 C-261.5664209 226.31212402 -262.0000293 225.62424805 -262.44677734 224.91552734 C-275.17687056 203.99935185 -286.17447049 176.49184954 -284.49609375 151.5859375 C-284.79127419 147.86982665 -286.11053226 146.96850632 -288.90234375 144.58203125 C-295.64908598 138.29215503 -299.15031401 131.2917322 -299.953125 122.10546875 C-300.2240883 111.52363899 -297.59902945 103.03055409 -290.7734375 94.83984375 C-284.20295812 88.43144451 -275.94564731 84.58125645 -266.74414062 84.60742188 C-266.05384766 84.61966797 -265.36355469 84.63191406 -264.65234375 84.64453125 C-263.95818359 84.64517578 -263.26402344 84.64582031 -262.54882812 84.64648438 C-259.59830612 84.67170251 -256.98157108 84.75310586 -254.140625 85.59375 C-250.37043645 85.96409058 -247.96517299 83.85650788 -244.96484375 81.83203125 C-216.66313011 63.88246333 -185.18300278 63.60329111 -152.71484375 62.83203125 C-152.15796875 61.7440625 -151.60109375 60.65609375 -151.02734375 59.53515625 C-146.4057947 50.59628205 -141.59725354 42.02061306 -135.71484375 33.83203125 C-135.01359375 32.83300781 -134.31234375 31.83398438 -133.58984375 30.8046875 C-119.57132032 11.64761747 -102.00045986 -4.51708703 -79.71484375 -13.16796875 C-78.60367188 -13.60238281 -77.4925 -14.03679688 -76.34765625 -14.484375 C-50.07063021 -23.03483585 -21.74351548 -16.08076353 0 0 Z " fill="#438EFE" transform="translate(307.71484375,17.16796875)"/>
<path d="M0 0 C1.06589355 0.50023682 2.13178711 1.00047363 3.22998047 1.51586914 C6.32684925 2.97584831 9.41489476 4.45285179 12.5 5.9375 C13.64710449 6.48615723 13.64710449 6.48615723 14.81738281 7.04589844 C18.71355538 8.918231 22.57200301 10.85306841 26.40625 12.84912109 C27.87692393 13.61361088 29.35122397 14.37114577 30.828125 15.12353516 C43.0912397 21.39729451 54.68242243 28.48054574 66.125 36.125 C66.75376038 36.54438843 67.38252075 36.96377686 68.03033447 37.39587402 C75.53101637 42.41466029 82.85561693 47.60740616 90.02636719 53.08789062 C92.37647656 54.90054647 92.37647656 54.90054647 94.49707031 56.17773438 C96.92404441 57.7763052 98.31360304 59.37430058 99.2265625 62.1328125 C99.84890737 65.39315651 100.16026843 68.63465617 100.5 71.9375 C100.57996216 72.63941467 100.65992432 73.34132935 100.74230957 74.06451416 C102.52846572 89.79818697 102.84449707 105.47446144 102.81567383 121.29296875 C102.81106381 124.0418341 102.81790543 126.79025461 102.83618164 129.5390625 C102.93560573 144.65366744 102.60661727 159.60718806 101.10546875 174.65625 C100.980616 175.9196521 100.85576324 177.1830542 100.72712708 178.48474121 C99.36822196 190.9454929 99.36822196 190.9454929 95.9855957 194.55224609 C95.38835693 195.01711426 94.79111816 195.48198242 94.17578125 195.9609375 C93.48919434 196.49912109 92.80260742 197.03730469 92.09521484 197.59179688 C91.34191895 198.15962891 90.58862305 198.72746094 89.8125 199.3125 C89.0179541 199.91900391 88.2234082 200.52550781 87.40478516 201.15039062 C58.38952015 222.9579708 25.89293185 241.06838049 -7.4375 255.4375 C-8.07421631 255.72230225 -8.71093262 256.00710449 -9.36694336 256.30053711 C-14.54214671 258.41859859 -18.47602754 258.06369725 -23.66723633 256.13037109 C-26.11953513 255.10050329 -28.52856033 254.00249463 -30.9375 252.875 C-31.81784912 252.47015381 -32.69819824 252.06530762 -33.60522461 251.64819336 C-40.95924965 248.24353982 -48.23994633 244.70452543 -55.44433594 240.99414062 C-56.8592765 240.26684101 -58.27675306 239.54446088 -59.69628906 238.82617188 C-84.04495757 226.50063604 -111.99812279 211.43937721 -131.5 191.9375 C-132.16354694 188.29667701 -132.54876126 184.60995785 -133 180.9375 C-133.13019531 179.93976563 -133.26039063 178.94203125 -133.39453125 177.9140625 C-135.44958553 161.432112 -135.66124345 145.01614407 -135.63037109 128.42700195 C-135.62501447 125.00923212 -135.63034644 121.59159397 -135.63671875 118.17382812 C-135.64083232 105.72299894 -135.36570048 93.35789714 -134.5 80.9375 C-134.44392578 79.8844165 -134.38785156 78.83133301 -134.33007812 77.74633789 C-134.17924533 75.13288721 -133.94794365 72.54193653 -133.6875 69.9375 C-133.64947266 69.10089844 -133.61144531 68.26429688 -133.57226562 67.40234375 C-132.92035703 61.50325478 -130.76674643 58.78231834 -126.28125 54.9375 C-124.06554767 53.20456453 -121.7978403 51.5594956 -119.5 49.9375 C-118.92134186 49.525 -118.34268372 49.1125 -117.74649048 48.6875 C-113.49467629 45.67928987 -109.16606303 42.7957016 -104.8125 39.9375 C-104.15092896 39.5004071 -103.48935791 39.06331421 -102.80773926 38.61297607 C-92.88454571 32.05761622 -82.91352259 25.6908274 -72.5 19.9375 C-71.57928711 19.42058594 -70.65857422 18.90367187 -69.70996094 18.37109375 C-57.32507377 11.43397673 -44.77943222 4.91092578 -31.875 -1 C-30.75561035 -1.5264209 -29.6362207 -2.0528418 -28.48291016 -2.59521484 C-16.90364096 -7.76210919 -11.11706133 -5.31336622 0 0 Z " fill="#E7ECFC" transform="translate(272.5,130.0625)"/>
<path d="M0 0 C4.56197748 3.30463592 8.64772499 7.06489402 12.70703125 10.9609375 C13.55265625 11.7653125 14.39828125 12.5696875 15.26953125 13.3984375 C16.47609375 14.666875 16.47609375 14.666875 17.70703125 15.9609375 C18.34898437 16.61964844 18.9909375 17.27835938 19.65234375 17.95703125 C26.89856907 25.64509958 42.70703125 42.89416215 42.70703125 53.9609375 C42.06491699 54.08621826 41.42280273 54.21149902 40.76123047 54.34057617 C34.18783784 55.62758831 27.62087 56.94397646 21.05761719 58.28173828 C19.00484532 58.69785686 16.95102814 59.10890824 14.89550781 59.51123047 C5.47488308 61.36228187 -3.66545023 63.67294609 -12.7578125 66.7578125 C-13.49677765 67.00840424 -14.2357428 67.25899597 -14.99710083 67.5171814 C-18.69641601 68.77960188 -22.3843902 70.06820526 -26.0625 71.39111328 C-27.42966555 71.87017984 -28.79685212 72.34918639 -30.1640625 72.828125 C-31.3698999 73.26237793 -32.5757373 73.69663086 -33.81811523 74.14404297 C-39.41213411 75.45912673 -44.13300245 74.19688948 -49.453125 72.32421875 C-50.39937744 71.99728027 -51.34562988 71.6703418 -52.32055664 71.33349609 C-53.82283813 70.80876709 -53.82283813 70.80876709 -55.35546875 70.2734375 C-77.04472673 62.9147291 -98.80025838 58.06531825 -121.29296875 53.9609375 C-119.79597297 49.2639642 -117.90443018 45.16902898 -115.35546875 40.9609375 C-114.96576904 40.31447266 -114.57606934 39.66800781 -114.17456055 39.00195312 C-109.77270985 31.87308534 -104.62033409 25.41204396 -99.29296875 18.9609375 C-98.71546875 18.24035156 -98.13796875 17.51976563 -97.54296875 16.77734375 C-72.32568607 -13.99048213 -33.4348704 -21.90725414 0 0 Z " fill="#E7ECFC" transform="translate(295.29296875,30.0390625)"/>
<path d="M0 0 C21.73163239 7.39810837 44.43820249 12.76052665 67.125 16.3125 C64.51099509 31.12519449 49.97935323 45.87157813 40.125 56.3125 C38.98804688 57.56353516 38.98804688 57.56353516 37.828125 58.83984375 C24.39261015 73.08763646 5.98686359 82.88962495 -13.77758789 83.71704102 C-34.96769918 84.06025218 -52.60472699 73.31749382 -67.50024414 59.08984375 C-79.69804931 47.1118604 -89.23843277 33.60449019 -96.875 18.3125 C-96.875 17.6525 -96.875 16.9925 -96.875 16.3125 C-96.10349609 16.17787354 -95.33199219 16.04324707 -94.53710938 15.90454102 C-79.17237716 13.18134797 -64.01655711 10.07987557 -49 5.8125 C-48.32559875 5.62086273 -47.65119751 5.42922546 -46.95635986 5.23178101 C-37.83657612 2.6194965 -28.86669788 -0.26798436 -20.0546875 -3.7890625 C-13.13406568 -5.74452075 -6.53433021 -2.2816544 0 0 Z " fill="#E7ECFC" transform="translate(270.875,411.6875)"/>
<path d="M0 0 C-0.66 0.495 -1.32 0.99 -2 1.5 C-4.12046898 4.15058623 -4.33618214 4.82628831 -4.4375 8.0625 C-4.31279662 11.77495968 -4.31279662 11.77495968 -2.9284668 13.71411133 C-0.02592549 15.64950632 2.91523041 15.48018594 6.29296875 15.51171875 C6.99899734 15.52966995 7.70502594 15.54762115 8.43244934 15.56611633 C10.68407241 15.62023178 12.93548343 15.65411722 15.1875 15.6875 C16.71552431 15.72067219 18.24352063 15.75516177 19.77148438 15.79101562 C23.51416989 15.87595825 27.25679241 15.94276248 31 16 C29.33282796 21.7081868 27.55895785 27.35693729 25.6027832 32.97241211 C19.3194103 51.13537123 14.04265969 69.83989978 11.59301758 88.93530273 C10.07779784 99.02339904 3.77299252 103.26300623 -3.87792969 109.37597656 C-9.36286265 113.88400287 -14.30071709 119.00507342 -19.29833984 124.03759766 C-21.12248747 125.87247269 -22.95709873 127.69639332 -24.79296875 129.51953125 C-31.65519687 136.37423519 -37.98892644 143.379233 -44 151 C-45.97892419 153.35254012 -47.98657787 155.67682062 -50 158 C-66.47710007 138.20560766 -72.77336043 113.04314626 -75 88 C-74.01773438 87.88785156 -74.01773438 87.88785156 -73.015625 87.7734375 C-62.59220105 86.27175778 -53.06030707 82.61779264 -46.3984375 74.15234375 C-40.57176283 65.18447296 -39.1681074 56.58216317 -40 46 C-41.88552113 37.12021466 -47.79547211 29.6849577 -55.140625 24.484375 C-57.19569865 23.26155115 -57.19569865 23.26155115 -60 22 C-58.48437565 17.45312694 -55.07119871 16.41055023 -51 14.1875 C-50.1941748 13.74462646 -49.38834961 13.30175293 -48.55810547 12.84545898 C-36.76739425 6.54535105 -13.35748383 -5.00905644 0 0 Z " fill="#E7ECFC" transform="translate(116,83)"/>
<path d="M0 0 C3.39449442 3.35221424 6.672099 6.7770294 9.875 10.3125 C11.07769531 11.63701172 11.07769531 11.63701172 12.3046875 12.98828125 C13.71855474 14.55480594 15.11297234 16.13212933 16.484375 17.73608398 C21.32481202 23.38205426 26.49376371 28.67992399 31.75048828 33.93579102 C33.23893237 35.42641615 34.71917277 36.92487017 36.19921875 38.42382812 C43.22951968 45.49508424 50.53345882 52.19190801 58.73608398 57.90600586 C61.50103023 60.4634246 61.79925752 61.84140284 62.30078125 65.53125 C62.46884277 66.63782959 62.6369043 67.74440918 62.81005859 68.88452148 C62.97586426 70.07762939 63.14166992 71.2707373 63.3125 72.5 C66.47037284 92.40546138 72.25476415 111.49115856 78.82958984 130.51928711 C79.10109863 131.3056958 79.37260742 132.09210449 79.65234375 132.90234375 C80.00800415 133.91542603 80.00800415 133.91542603 80.37084961 134.94897461 C81.08479566 137.27643318 81.55671292 139.60760332 82 142 C50.9252708 142.61431186 50.9252708 142.61431186 37 139 C35.77023438 138.73316406 34.54046875 138.46632813 33.2734375 138.19140625 C26.09738803 136.51996616 19.72175191 134.18198575 13.125 130.9375 C12.42826172 130.5969458 11.73152344 130.2563916 11.01367188 129.90551758 C6.12780042 127.38340127 6.12780042 127.38340127 5 124 C5.70703125 122.16796875 5.70703125 122.16796875 6.8125 120.1875 C11.15225067 111.88340962 12.67782923 104.06715035 10.125 94.8359375 C6.01559375 84.15688837 0.54577631 78.01495667 -9.84375 73.1875 C-14.47704133 71.44428148 -19.09334073 70.56020913 -24 70 C-23.48605541 44.81671522 -13.83821734 20.75732601 0 0 Z " fill="#E6ECFC" transform="translate(65,271)"/>
<path d="M0 0 C15.84983397 18.7185822 24.50417107 45.70438248 25 70 C24.10539062 70.14695312 23.21078125 70.29390625 22.2890625 70.4453125 C12.01886494 72.3504451 2.90944375 75.35581366 -3.68359375 83.90234375 C-8.86143493 92.15308771 -11.42567852 100.26428542 -10 110 C-8.94287235 113.80565955 -7.56737357 117.37902384 -6 121 C-5.33014858 122.66538923 -4.66254815 124.33169182 -4 126 C-22.79930129 139.02556011 -45.79472172 142.21790344 -68.125 142.0625 C-69.98898437 142.05573242 -69.98898437 142.05573242 -71.890625 142.04882812 C-74.92713502 142.03714924 -77.96354088 142.0207714 -81 142 C-80.35001656 138.36921388 -79.39247098 135.00113347 -78.1796875 131.51953125 C-74.23112527 120.03083549 -70.40313179 108.53078187 -67.1875 96.8125 C-66.75074951 95.22284424 -66.75074951 95.22284424 -66.30517578 93.60107422 C-64.6054224 87.12304842 -63.49295193 80.74202769 -62.6574707 74.10107422 C-60.75413222 59.32368653 -60.75413222 59.32368653 -55 54.6875 C-53.01488833 53.43443082 -51.01458774 52.20510869 -49 51 C-47.16582527 49.46611051 -45.37605702 47.87813181 -43.625 46.25 C-43.15215576 45.81324951 -42.67931152 45.37649902 -42.19213867 44.92651367 C-36.79262542 39.89497482 -31.55315511 34.69581626 -26.3125 29.5 C-25.43352051 28.63407227 -24.55454102 27.76814453 -23.64892578 26.87597656 C-18.42534588 21.6592685 -13.60575698 16.26761228 -9.00292969 10.49487305 C-6.1145482 6.89707071 -3.06893595 3.44391848 0 0 Z " fill="#E6ECFC" transform="translate(446,271)"/>
<path d="M0 0 C26.41490416 -0.37418955 54.49296015 0.08038645 77 16 C76.04385372 18.44635625 75.07122723 20.85234647 73.9296875 23.21875 C70.27553259 31.12255174 69.56425921 38.7716165 71.8828125 47.21484375 C75.93902733 57.86576548 81.51190152 64.01184313 91.84375 68.8125 C96.47704133 70.55571852 101.09334073 71.43979087 106 72 C104.32643608 97.50742257 96.14103765 120.71322524 82 142 C78.60550558 138.64778576 75.327901 135.2229706 72.125 131.6875 C71.32320313 130.80449219 70.52140625 129.92148438 69.6953125 129.01171875 C68.28680561 127.4513605 66.89792775 125.88041169 65.53320312 124.28149414 C60.55884279 118.47232333 55.22716852 113.04102443 49.82226562 107.63696289 C48.26139673 106.07391266 46.70872112 104.50302635 45.15625 102.93164062 C39.4865434 97.23219623 33.73292984 91.95879512 27.36621094 87.03295898 C23.0807856 83.35108354 20.65614953 80.23887674 19.65625 74.640625 C19.46160156 73.60550781 19.26695312 72.57039063 19.06640625 71.50390625 C18.87949219 70.43011719 18.69257813 69.35632813 18.5 68.25 C15.42637524 51.35566253 11.34230054 35.29579808 5.75 19.0625 C4.91830799 16.63030682 4.08890965 14.19737056 3.26275635 11.76329041 C2.75443775 10.26740159 2.24266588 8.77268056 1.72698975 7.27931213 C0 2.22208729 0 2.22208729 0 0 Z " fill="#E7ECFC" transform="translate(365,99)"/>
<path d="M0 0 C4.14760916 1.38253639 4.93541287 2.52946606 7.375 6.125 C8.88661275 9.16272055 10.16336977 12.28226823 11.4375 15.42578125 C11.8218924 16.35482269 12.20628479 17.28386414 12.60232544 18.24105835 C13.86747337 21.30347124 15.1211676 24.37043897 16.375 27.4375 C17.25418934 29.57107243 18.13424764 31.70428698 19.01513672 33.8371582 C20.85943461 38.30447 22.69990321 42.77333283 24.53808594 47.24316406 C28.71488178 57.38866496 32.946512 67.51130808 37.17382812 77.63583374 C39.28707404 82.69782994 41.3978991 87.76083276 43.5078125 92.82421875 C43.87149933 93.69605804 44.23518616 94.56789734 44.6098938 95.46615601 C50.01245765 108.43169471 50.01245765 108.43169471 49.375 115.125 C47.24551297 118.44699976 45.7117893 119.02090149 41.9375 120.1875 C38.375 120.125 38.375 120.125 35.83325195 118.00048828 C33.32895257 115.07113699 31.95584973 112.59833657 30.48046875 109.0546875 C29.76020508 107.33958984 29.76020508 107.33958984 29.02539062 105.58984375 C28.30125977 103.81287109 28.30125977 103.81287109 27.5625 102 C26.80936523 100.21142578 26.80936523 100.21142578 26.04101562 98.38671875 C22.375 89.55835459 22.375 89.55835459 22.375 86.125 C6.865 86.125 -8.645 86.125 -24.625 86.125 C-25.615 89.095 -26.605 92.065 -27.625 95.125 C-28.99706847 98.7664956 -30.49273592 102.35010965 -32 105.9375 C-32.37382812 106.86498047 -32.74765625 107.79246094 -33.1328125 108.74804688 C-35.19923699 113.65580504 -36.78661659 117.40680708 -41.625 120.125 C-45.9100666 120.20017661 -47.85503157 119.81599731 -51.0625 116.9375 C-52.95012163 113.53978107 -52.96132944 111.98210917 -52.625 108.125 C-51.69849032 105.45883678 -50.71999664 102.97317102 -49.57421875 100.40625 C-49.24838303 99.65162979 -48.9225473 98.89700958 -48.58683777 98.11952209 C-47.87736488 96.47904714 -47.16306719 94.84065229 -46.44451904 93.20413208 C-44.48891595 88.74858983 -42.56957588 84.27740199 -40.64453125 79.80859375 C-40.23823486 78.86813705 -39.83193848 77.92768036 -39.41333008 76.95872498 C-34.65308369 65.91906271 -30.07463481 54.80504682 -25.5 43.6875 C-24.71189357 41.77471449 -23.92372762 39.86195351 -23.13549805 37.94921875 C-22.75743515 37.03067108 -22.37937225 36.11212341 -21.98985291 35.16574097 C-21.24977297 33.36981366 -20.50784153 31.57464805 -19.76393127 29.78030396 C-18.03352452 25.59800771 -16.3391938 21.40881584 -14.72753906 17.17919922 C-14.42558624 16.40277573 -14.12363342 15.62635223 -13.81253052 14.82640076 C-13.25687529 13.39336481 -12.71447061 11.95507745 -12.18917847 10.51063538 C-9.88607332 4.6340641 -6.65561163 0.22950385 0 0 Z " fill="#448EFE" transform="translate(214.625,195.875)"/>
<path d="M0 0 C1.10810028 -0.00637985 2.21620056 -0.0127597 3.35787964 -0.01933289 C4.55994049 -0.02044571 5.76200134 -0.02155853 7.00048828 -0.02270508 C8.23115021 -0.02603348 9.46181213 -0.02936188 10.72976685 -0.03279114 C13.33741888 -0.03786198 15.94507742 -0.04019942 18.55273438 -0.04003906 C21.2279332 -0.0399577 23.90296121 -0.04691224 26.578125 -0.06054688 C30.42729964 -0.07883105 34.2762746 -0.0837741 38.12548828 -0.08520508 C39.32350067 -0.09239059 40.52151306 -0.09957611 41.75582886 -0.10697937 C42.87023346 -0.10390274 43.98463806 -0.10082611 45.1328125 -0.09765625 C46.11273163 -0.09908127 47.09265076 -0.10050629 48.1022644 -0.10197449 C50.83639399 0.15866622 52.41254285 0.63922456 54.69580078 2.14526367 C57.19611733 5.89573849 57.23183632 7.70382633 56.69580078 12.14526367 C55.04580078 13.79526367 53.39580078 15.44526367 51.69580078 17.14526367 C45.09580078 17.14526367 38.49580078 17.14526367 31.69580078 17.14526367 C31.69580078 45.52526367 31.69580078 73.90526367 31.69580078 103.14526367 C38.29580078 103.14526367 44.89580078 103.14526367 51.69580078 103.14526367 C56.69580078 107.14526367 56.69580078 107.14526367 57.38330078 111.08276367 C57.50607234 114.33297921 56.61879553 115.23371723 54.43945312 117.73706055 C49.6556713 121.57417496 43.88535078 120.8399919 38.03564453 120.77416992 C36.81301407 120.77658188 35.59038361 120.77899384 34.33070374 120.78147888 C31.75111643 120.78050111 29.17150797 120.76712465 26.59204102 120.7421875 C22.6434814 120.7078522 18.69715655 120.72154211 14.74853516 120.7409668 C12.24006209 120.73406909 9.73159479 120.7243974 7.22314453 120.71166992 C6.04284164 120.71662979 4.86253876 120.72158966 3.64646912 120.72669983 C-4.52203037 120.60925209 -4.52203037 120.60925209 -8.5246582 118.23486328 C-10.65130506 115.73767979 -11.24387224 114.59771601 -11.67919922 111.33276367 C-11.30419922 108.14526367 -11.30419922 108.14526367 -6.30419922 103.14526367 C0.62580078 103.14526367 7.55580078 103.14526367 14.69580078 103.14526367 C14.69580078 74.76526367 14.69580078 46.38526367 14.69580078 17.14526367 C7.76580078 17.14526367 0.83580078 17.14526367 -6.30419922 17.14526367 C-10.30419922 13.14526367 -10.30419922 13.14526367 -11.30419922 9.70776367 C-11.30419922 6.14526367 -11.30419922 6.14526367 -9.49169922 3.27026367 C-6.21790813 0.09000947 -4.45879422 0.01737252 0 0 Z " fill="#448EFE" transform="translate(284.30419921875,195.854736328125)"/>
<path d="M0 0 C7.31366207 0.40921681 12.93942418 2.92689241 19.5 6.0625 C20.56589355 6.56273682 21.63178711 7.06297363 22.72998047 7.57836914 C25.82684925 9.03834831 28.91489476 10.51535179 32 12 C32.76473633 12.36577148 33.52947266 12.73154297 34.31738281 13.10839844 C38.21355538 14.980731 42.07200301 16.91556841 45.90625 18.91162109 C47.37692393 19.67611088 48.85122397 20.43364577 50.328125 21.18603516 C62.5912397 27.45979451 74.18242243 34.54304574 85.625 42.1875 C86.25376038 42.60688843 86.88252075 43.02627686 87.53033447 43.45837402 C95.03101637 48.47716029 102.35561693 53.66990616 109.52636719 59.15039062 C111.87647656 60.96304647 111.87647656 60.96304647 113.99707031 62.24023438 C116.42404441 63.8388052 117.81360304 65.43680058 118.7265625 68.1953125 C119.34890737 71.45565651 119.66026843 74.69715617 120 78 C120.07996216 78.70191467 120.15992432 79.40382935 120.24230957 80.12701416 C122.02846572 95.86068697 122.34449707 111.53696144 122.31567383 127.35546875 C122.31106381 130.1043341 122.31790543 132.85275461 122.33618164 135.6015625 C122.43560573 150.71616744 122.10661727 165.66968806 120.60546875 180.71875 C120.480616 181.9821521 120.35576324 183.2455542 120.22712708 184.54724121 C118.86822196 197.0079929 118.86822196 197.0079929 115.4855957 200.61474609 C114.58973755 201.31204834 114.58973755 201.31204834 113.67578125 202.0234375 C112.98919434 202.56162109 112.30260742 203.09980469 111.59521484 203.65429688 C110.84191895 204.22212891 110.08862305 204.78996094 109.3125 205.375 C108.5179541 205.98150391 107.7234082 206.58800781 106.90478516 207.21289062 C77.93657509 228.98510478 45.38157747 247.41183592 11.9375 261.4375 C10.95728882 261.85213501 10.95728882 261.85213501 9.95727539 262.27514648 C6.52067017 263.64783622 3.70083253 264.28683201 0 264 C2.49058329 262.33961114 4.74316498 261.12825825 7.4453125 259.890625 C36.49830243 246.40843346 63.09767532 229.93200604 89 211.1875 C89.77714355 210.63126953 90.55428711 210.07503906 91.35498047 209.50195312 C96.86333744 205.43432052 99.70658468 202.29355325 100.9140625 195.40234375 C101.1629104 193.58231256 101.39951798 191.76057341 101.625 189.9375 C101.80675781 188.64875977 101.80675781 188.64875977 101.9921875 187.33398438 C104.39025265 169.02267166 104.20370264 150.43025836 104.1875 132 C104.18722809 130.83489899 104.18695618 129.66979797 104.18667603 128.46939087 C104.16915785 112.13895074 104.10680983 95.86072789 102.29003906 79.61230469 C102.10040802 77.90434829 101.93216926 76.19384567 101.78808594 74.48144531 C101.17030209 67.20830896 100.34659254 61.37281746 94.5625 56.375 C93.02047346 55.30838085 91.47480637 54.24568925 89.89501953 53.23583984 C87.71153774 51.8118789 85.60748242 50.29831591 83.49609375 48.76953125 C59.02458235 31.14009448 33.01590136 16.09051231 5.89331055 2.92285156 C3.92200781 1.96198446 1.96000479 0.98367894 0 0 Z " fill="#C8D8FC" transform="translate(253,124)"/>
<path d="M0 0 C19 48.83953568 19 48.83953568 19 64 C14.81478148 62.55655785 11.76910775 60.47862605 8.25 57.8125 C-14.52981666 41.08435441 -40.3473522 27.73031008 -66 16 C-58.21324878 7.58328996 -39.93412613 6.58680942 -28.9375 4.25 C-28.21222107 4.09543335 -27.48694214 3.9408667 -26.73968506 3.78161621 C-24.62821387 3.33396501 -22.515608 2.89222685 -20.40234375 2.453125 C-19.16991943 2.19692383 -17.93749512 1.94072266 -16.66772461 1.67675781 C-11.12691818 0.65438442 -5.65396821 -0.17668651 0 0 Z " fill="#E5EBFC" transform="translate(347,100)"/>
<path d="M0 0 C-2.88226401 22.11696466 -10.65045288 43.41326052 -19 64 C-28.9891948 63.54067733 -38.51660082 61.88723155 -48.25 59.75 C-48.97245911 59.59382202 -49.69491821 59.43764404 -50.43927002 59.2767334 C-80.60738756 52.74798079 -80.60738756 52.74798079 -85 48 C-84.21858643 47.63986816 -84.21858643 47.63986816 -83.42138672 47.27246094 C-56.10773579 34.62405713 -29.50157041 20.05983888 -5.19921875 2.2109375 C-2 0 -2 0 0 0 Z " fill="#E5EBFC" transform="translate(366,348)"/>
<path d="M0 0 C-0.0707373 0.87043945 -0.14147461 1.74087891 -0.21435547 2.63769531 C-1.17698578 16.29046623 -1.15329562 29.93767022 -1.13037109 43.61816406 C-1.12469705 47.04771828 -1.12803768 50.47719443 -1.13382339 53.90674591 C-1.15568572 69.29961002 -0.94241927 84.63362839 0 100 C-5.74256398 95.16339437 -11.12355699 90.06264781 -16.43310547 84.75219727 C-17.86017347 83.32730394 -19.2950497 81.91061431 -20.73046875 80.49414062 C-26.92760296 74.30986354 -32.58043103 67.87253093 -38 61 C-38.87542802 59.91205651 -39.75152879 58.82465322 -40.62890625 57.73828125 C-41.26699219 56.93777344 -41.90507813 56.13726562 -42.5625 55.3125 C-43.22378906 54.48363281 -43.88507813 53.65476562 -44.56640625 52.80078125 C-45.03949219 52.20652344 -45.51257813 51.61226563 -46 51 C-39.09355018 35.13068553 -22.25738944 21.18620951 -10.3125 9.1875 C-9.414104 8.28435059 -8.51570801 7.38120117 -7.59008789 6.45068359 C-6.7521167 5.6148877 -5.91414551 4.7790918 -5.05078125 3.91796875 C-4.29450439 3.16281982 -3.53822754 2.4076709 -2.7590332 1.62963867 C-1 0 -1 0 0 0 Z " fill="#E5EBFC" transform="translate(122,206)"/>
<path d="M0 0 C22.45847025 2.24250001 44.47047066 7.31318148 66 14 C66 14.66 66 15.32 66 16 C65.36312256 16.29543701 64.72624512 16.59087402 64.07006836 16.89526367 C37.33132925 29.35963343 10.76967911 43.38105075 -12.91625977 61.10620117 C-16.80725013 64 -16.80725013 64 -19 64 C-16.89967388 42.05373528 -8.27050788 20.2774381 0 0 Z " fill="#E5EBFC" transform="translate(165,100)"/>
<path d="M0 0 C4.2434331 1.45355167 7.51836749 3.70285312 11.0625 6.375 C25.47318321 16.93193486 41.31490668 25.50332788 57 34 C57.74443359 34.40379883 58.48886719 34.80759766 59.25585938 35.22363281 C67.70566616 39.79178678 76.16770639 44.20383061 85 48 C83.4732804 51.0534392 81.32448871 51.16173853 78.125 52.25 C59.85435141 58.27776025 38.35901832 64 19 64 C0 15.16046432 0 15.16046432 0 0 Z " fill="#E6EBFC" transform="translate(146,348)"/>
<path d="M0 0 C5.78539371 4.78376737 11.12651451 9.94031022 16.43310547 15.24780273 C17.86017347 16.67269606 19.2950497 18.08938569 20.73046875 19.50585938 C26.92760296 25.69013646 32.58043103 32.12746907 38 39 C38.87542802 40.08794349 39.75152879 41.17534678 40.62890625 42.26171875 C41.26699219 43.06222656 41.90507812 43.86273438 42.5625 44.6875 C43.22378906 45.51636719 43.88507813 46.34523437 44.56640625 47.19921875 C45.03949219 47.79347656 45.51257813 48.38773438 46 49 C38.82033241 65.39357432 21.55046256 79.51204253 9.1875 91.9375 C8.39206787 92.73768555 7.59663574 93.53787109 6.77709961 94.36230469 C6.03983643 95.09739258 5.30257324 95.83248047 4.54296875 96.58984375 C3.88321045 97.24847412 3.22345215 97.90710449 2.54370117 98.58569336 C1 100 1 100 0 100 C0.07064667 99.0291748 0.14129333 98.05834961 0.21408081 97.05810547 C0.88555676 87.40615497 1.14902454 77.80264468 1.1328125 68.125 C1.13348957 66.66162093 1.13446291 65.19824197 1.13571167 63.73486328 C1.13716974 60.69627796 1.13509598 57.65772243 1.13037109 54.61914062 C1.124675 50.77387113 1.1279643 46.92867149 1.13394356 43.08340454 C1.13760089 40.07006325 1.13638718 37.05673783 1.13381577 34.043396 C1.1331607 32.62758373 1.13392355 31.2117699 1.13629532 29.79595947 C1.14934676 19.82263379 0.72343662 9.94145257 0 0 Z " fill="#E5EBFC" transform="translate(390,206)"/>
<path d="M0 0 C3.59797911 3.4951797 6.80927377 7.128228 10 11 C9.48050781 12.1859375 8.96101563 13.371875 8.42578125 14.59375 C0.13886453 33.73026022 -5.34240375 52.11428728 -7 73 C-12.68099789 72.0787571 -18.33935016 71.03745006 -24 70 C-23.48605541 44.81671522 -13.83821734 20.75732601 0 0 Z " fill="#FBFDFE" transform="translate(65,271)"/>
<path d="M0 0 C15.84983397 18.7185822 24.50417107 45.70438248 25 70 C24.02417969 70.20496094 23.04835938 70.40992188 22.04296875 70.62109375 C20.77066406 70.89050781 19.49835938 71.15992188 18.1875 71.4375 C16.92292969 71.70433594 15.65835937 71.97117187 14.35546875 72.24609375 C11.02954587 72.93427886 11.02954587 72.93427886 8 74 C7.92523438 72.72769531 7.85046875 71.45539063 7.7734375 70.14453125 C6.50537987 52.06733767 2.18162448 35.66511764 -5.484375 19.25 C-6.75442186 16.52660054 -7.91747467 13.80183026 -9 11 C-7.68823998 9.35357683 -6.3755713 7.70787757 -5.0625 6.0625 C-4.33160156 5.14597656 -3.60070312 4.22945313 -2.84765625 3.28515625 C-1 1 -1 1 0 0 Z " fill="#C8D8FC" transform="translate(446,271)"/>
<path d="M0 0 C0.08636719 1.15113281 0.17273438 2.30226562 0.26171875 3.48828125 C1.81541806 21.92916573 6.51631875 38.14702372 14.11791992 54.98974609 C15.13310471 57.30334464 16.06167145 59.65417863 17 62 C12.545 67.445 12.545 67.445 8 73 C-8.22105891 52.72367636 -14.74276182 28.38729056 -17 3 C-16.22914062 2.86722656 -15.45828125 2.73445312 -14.6640625 2.59765625 C-13.66117188 2.42105469 -12.65828125 2.24445313 -11.625 2.0625 C-10.62726562 1.88847656 -9.62953125 1.71445313 -8.6015625 1.53515625 C-1.13868613 0 -1.13868613 0 0 0 Z " fill="#FCFDFE" transform="translate(58,168)"/>
<path d="M0 0 C0.64066406 0.20496094 1.28132813 0.40992188 1.94140625 0.62109375 C6.97287851 2.18827364 11.75988003 3.43042174 17 4 C15.32643608 29.50742257 7.14103765 52.71322524 -7 74 C-10.59634744 70.50640535 -13.83451967 66.88901869 -17 63 C-16.75354736 62.45287354 -16.50709473 61.90574707 -16.25317383 61.34204102 C-7.02173928 40.70973093 -2.18307233 22.55116431 0 0 Z " fill="#C8D8FC" transform="translate(454,167)"/>
<path d="M0 0 C16.23914447 2.92837031 29.25245849 11.72493731 41 23 C42.2684375 24.2065625 42.2684375 24.2065625 43.5625 25.4375 C44.366875 26.283125 45.17125 27.12875 46 28 C46.64195312 28.65871094 47.28390625 29.31742188 47.9453125 29.99609375 C55.19153782 37.68416208 71 54.93322465 71 66 C63.575 66.99 63.575 66.99 56 68 C55.443125 66.91203125 54.88625 65.8240625 54.3125 64.703125 C41.38838592 39.70565585 25.36073941 18.14127438 1.80078125 2.3125 C1.20652344 1.879375 0.61226563 1.44625 0 1 C0 0.67 0 0.34 0 0 Z " fill="#C8D8FC" transform="translate(267,18)"/>
<path d="M0 0 C7.425 0.99 7.425 0.99 15 2 C11.2036708 17.18531678 -1.55024257 30.9282332 -12 42 C-12.75796875 42.83402344 -13.5159375 43.66804688 -14.296875 44.52734375 C-25.42746993 56.3308668 -39.94397729 65.10465164 -56 68 C-53.13649974 64.98262005 -50.15259622 62.57417821 -46.75 60.1875 C-38.88664371 54.53048437 -32.08323773 48.54837206 -26 41 C-25.57734863 40.47857422 -25.15469727 39.95714844 -24.71923828 39.41992188 C-14.93113388 27.22311931 -6.9896613 13.9793226 0 0 Z " fill="#C8D8FC" transform="translate(323,426)"/>
<path d="M0 0 C4.88292116 2.38791978 7.82173825 6.46816261 9.84375 11.37109375 C10.99086688 16.56330699 9.75392621 20.98394948 7.1484375 25.5390625 C4.02134381 29.93010125 1.1453704 31.96009011 -4.21875 32.91796875 C-10.1296633 33.27371816 -14.22442968 33.03234307 -18.84375 29.12109375 C-22.88635128 25.06983593 -24.45084803 21.73679427 -24.53125 15.99609375 C-24.42412649 10.96128858 -23.61802724 8.1972686 -20.15625 4.37109375 C-19.33125 3.42234375 -18.50625 2.47359375 -17.65625 1.49609375 C-12.77071201 -2.34520711 -5.68093101 -1.65693821 0 0 Z " fill="#FDFDFE" transform="translate(50.15625,120.62890625)"/>
<path d="M0 0 C5.01791684 2.41935276 8.49958655 5.9991731 11 11 C11.55713132 16.95701945 11.52180186 21.95208399 8 27 C3.62114676 31.29711465 0.44594584 33.17491268 -5.6875 33.375 C-10.67078359 33.32128796 -13.81500418 32.84469684 -17.59765625 29.54296875 C-21.22168418 25.55552854 -23.20556944 22.01978038 -23.5625 16.5625 C-23.24232271 10.09271056 -19.93734833 5.89009593 -15.4375 1.5 C-10.29517977 -0.74392156 -5.52295971 -0.75106183 0 0 Z " fill="#E5EBFC" transform="translate(475,359)"/>
<path d="M0 0 C4.88292116 2.38791978 7.82173825 6.46816261 9.84375 11.37109375 C11.01535031 16.67412673 9.63897474 20.94482817 7.0546875 25.609375 C4.60349424 29.17546584 1.89413841 31.02096428 -2.15625 32.37109375 C-7.22340366 33.03170045 -12.07395201 33.52792596 -16.65234375 30.984375 C-21.14264618 27.18615588 -23.77889115 23.98643496 -24.3984375 18.05078125 C-24.69186963 12.26844215 -24.11877788 8.85500688 -20.15625 4.37109375 C-19.33125 3.42234375 -18.50625 2.47359375 -17.65625 1.49609375 C-12.77071201 -2.34520711 -5.68093101 -1.65693821 0 0 Z " fill="#FDFDFE" transform="translate(50.15625,359.62890625)"/>
<path d="M0 0 C5.01791684 2.41935276 8.49958655 5.9991731 11 11 C11.55713132 16.95701945 11.52180186 21.95208399 8 27 C3.66309355 31.25595086 0.45165663 33.18366498 -5.625 33.4375 C-11.13717676 33.38456193 -14.31959419 32.42860349 -18.44140625 28.76953125 C-22.20963208 24.49131997 -23.65703519 19.73855103 -23.4140625 14.05078125 C-22.36162911 8.83825737 -19.15427613 5.12612305 -15.4375 1.5 C-10.29517977 -0.74392156 -5.52295971 -0.75106183 0 0 Z " fill="#E5EBFC" transform="translate(475,120)"/>
<path d="M0 0 C3.26008643 3.16952847 6.22237877 6.39937989 9 10 C1.82033241 26.39357432 -15.44953744 40.51204253 -27.8125 52.9375 C-28.60793213 53.73768555 -29.40336426 54.53787109 -30.22290039 55.36230469 C-30.96016357 56.09739258 -31.69742676 56.83248047 -32.45703125 57.58984375 C-33.11678955 58.24847412 -33.77654785 58.90710449 -34.45629883 59.58569336 C-36 61 -36 61 -37 61 C-36.67 55.72 -36.34 50.44 -36 45 C-34.515 44.505 -34.515 44.505 -33 44 C-31.34291572 42.4126447 -31.34291572 42.4126447 -29.734375 40.4375 C-29.12013672 39.71304688 -28.50589844 38.98859375 -27.87304688 38.2421875 C-27.25494141 37.50226563 -26.63683594 36.76234375 -26 36 C-25.43861328 35.34257812 -24.87722656 34.68515625 -24.29882812 34.0078125 C-17.73129 26.3031388 -11.42478849 18.47154428 -5.6875 10.125 C-4.99479004 9.11759766 -4.99479004 9.11759766 -4.28808594 8.08984375 C-2.48669231 5.41600777 -1.0244753 3.0734259 0 0 Z " fill="#C8D8FC" transform="translate(427,245)"/>
<path d="M0 0 C2.82971552 3.37700931 4.47102564 7.06755119 6.13671875 11.1015625 C6.42102249 11.77923676 6.70532623 12.45691101 6.99824524 13.15512085 C7.59503306 14.58112932 8.1890742 16.00829005 8.78051758 17.43652344 C9.68847137 19.62734384 10.60623929 21.8138573 11.52539062 24 C12.1047502 25.38777737 12.6835461 26.77579022 13.26171875 28.1640625 C13.6741407 29.14688705 13.6741407 29.14688705 14.09489441 30.14956665 C16 34.76875385 16 34.76875385 16 37 C5.77 37 -4.46 37 -15 37 C-14.11868491 32.59342453 -12.83371413 28.85706698 -11.09375 24.765625 C-10.80898804 24.08699402 -10.52422607 23.40836304 -10.23083496 22.70916748 C-9.63120489 21.28287928 -9.02931484 19.85753933 -8.42529297 18.43310547 C-7.49806877 16.24544353 -6.57857971 14.05465042 -5.66015625 11.86328125 C-5.07597146 10.47637261 -4.49135137 9.08964722 -3.90625 7.703125 C-3.63018921 7.0458844 -3.35412842 6.3886438 -3.06970215 5.71148682 C-1.11596678 1.11596678 -1.11596678 1.11596678 0 0 Z " fill="#E0E8FC" transform="translate(213,228)"/>
<path d="M0 0 C5.94513127 1.78353938 8.68374079 4.28180779 11.89453125 9.6015625 C13.93931101 14.03793979 13.83387356 17.37646798 12.33203125 22.1015625 C10.03236478 27.46410353 6.97669648 30.05084653 2 33 C1.34 33 0.68 33 0 33 C-4.25585674 24.58328333 -5.82925413 16.15796325 -3.09375 6.94921875 C-2.15274377 4.57317803 -1.1527514 2.27977175 0 0 Z " fill="#E4EBFC" transform="translate(47,120)"/>
<path d="M0 0 C5.12563073 1.87282661 7.90868031 3.30577381 11 8 C11.4125 8.598125 11.825 9.19625 12.25 9.8125 C14.00655242 14.93577788 13.53258995 19.43231493 11.3125 24.25 C9.40712736 27.66351211 7.44645808 30.0182866 4 32 C1.984375 31.79296875 1.984375 31.79296875 0 31 C-4.59829475 24.35801869 -4.98207461 17.92269808 -4 10 C-2.96179705 6.49606503 -1.64791902 3.25905413 0 0 Z " fill="#E4EBFC" transform="translate(47,359)"/>
<path d="M0 0 C-0.66 0.495 -1.32 0.99 -2 1.5 C-4.27613262 4.34516577 -4.50717444 6.30051436 -4.62890625 9.90234375 C-3.66647199 13.11245058 -1.42823905 14.78726236 1 17 C-2.43663614 17.67117267 -5.87444041 18.33616071 -9.3125 19 C-10.28896484 19.19078125 -11.26542969 19.3815625 -12.27148438 19.578125 C-13.67817383 19.84882812 -13.67817383 19.84882812 -15.11328125 20.125 C-15.97735596 20.29257813 -16.84143066 20.46015625 -17.73168945 20.6328125 C-20 21 -20 21 -23 21 C-22.96519531 20.31292969 -22.93039063 19.62585938 -22.89453125 18.91796875 C-22.86746094 18.01691406 -22.84039062 17.11585937 -22.8125 16.1875 C-22.77769531 15.29417969 -22.74289063 14.40085937 -22.70703125 13.48046875 C-22.79981339 10.97476867 -22.79981339 10.97476867 -24.28125 9.21875 C-26.96647016 7.3146848 -29.78655095 7.30315557 -33 7 C-30.82066463 4.82066463 -29.83764025 4.50864201 -26.9296875 3.74609375 C-26.115 3.53146484 -25.3003125 3.31683594 -24.4609375 3.09570312 C-23.18089844 2.76989258 -23.18089844 2.76989258 -21.875 2.4375 C-21.04484375 2.21642578 -20.2146875 1.99535156 -19.359375 1.76757812 C-5.12973865 -1.92365199 -5.12973865 -1.92365199 0 0 Z " fill="#FAFCFE" transform="translate(116,83)"/>
<path d="M0 0 C-0.99 0.33 -1.98 0.66 -3 1 C-3.9777936 6.18729262 -3.9777936 6.18729262 -3.375 11.3125 C-1.56517056 13.53365431 0.48283789 14.67517784 3 16 C0.26256906 18.11528755 -2.5099271 20.00920413 -5.5 21.75 C-6.62921875 22.42289063 -6.62921875 22.42289063 -7.78125 23.109375 C-10.43154776 24.17322692 -11.39535665 24.10500021 -14 23 C-15.74609375 21.6953125 -15.74609375 21.6953125 -17.4375 20.125 C-20.13743046 17.70437269 -22.80134069 15.74472326 -26 14 C-24.82810537 10.4843161 -24.26719127 10.29259282 -21.140625 8.58984375 C-20.35429688 8.15736328 -19.56796875 7.72488281 -18.7578125 7.27929688 C-17.51644531 6.61510742 -17.51644531 6.61510742 -16.25 5.9375 C-15.03183594 5.26750977 -15.03183594 5.26750977 -13.7890625 4.58398438 C-2.80261107 -1.40130553 -2.80261107 -1.40130553 0 0 Z " fill="#FBFCFE" transform="translate(82,91)"/>
<path d="M0 0 C2.5 1.5 2.5 1.5 4 4 C4.791013 8.02098277 4.62153384 10.96411027 2.5 14.5 C-1.03067876 16.61840725 -3.98396388 16.79990863 -8 16 C-11.32199976 13.87051297 -11.89590149 12.3367893 -13.0625 8.5625 C-13 5 -13 5 -11.0625 2.0625 C-6.86229946 -0.76620649 -4.99614519 -0.71373503 0 0 Z " fill="#468FFF" transform="translate(90,90)"/>
<path d="M0 0 C1.54286547 2.31429821 2.89992755 4.54571028 4.1875 7 C4.55230469 7.680625 4.91710937 8.36125 5.29296875 9.0625 C6 11 6 11 5 14 C2.86214159 15.30828609 0.81275998 16.42285995 -1.4375 17.5 C-2.06479004 17.80752197 -2.69208008 18.11504395 -3.33837891 18.43188477 C-8.40826747 20.85568696 -13.53177408 22.67704212 -19 24 C-19 23.34 -19 22.68 -19 22 C-17.57273096 21.07460449 -16.1398109 20.15681924 -14.68041992 19.28295898 C-6.38622011 14.25035932 -3.15040559 9.30736263 0 0 Z " fill="#C5D6FC" transform="translate(436,384)"/>
<path d="M0 0 C4.21264487 1.50451603 6.00333217 4.08345926 8 8 C7.19725611 12.11406245 4.68913017 14.86268147 2 18 C-2.2742558 16.4169423 -4.26531794 13.49431596 -7 10 C-5.33248852 6.05860922 -2.77289351 3.2107188 0 0 Z " fill="#FBFCFE" transform="translate(83,247)"/>
<path d="M0 0 C6.188835 1.49729879 11.86188665 3.70533764 17.5625 6.5 C18.4918335 6.94484741 18.4918335 6.94484741 19.43994141 7.39868164 C23.87841369 9.63524106 23.87841369 9.63524106 25 13 C24.00390625 15.48046875 24.00390625 15.48046875 22.5625 18.1875 C22.08941406 19.08855469 21.61632812 19.98960938 21.12890625 20.91796875 C20.75636719 21.60503906 20.38382812 22.29210937 20 23 C17.89094126 20.34724623 16.44240363 17.83123059 15.0625 14.75 C12.14944073 9.27670541 7.66544882 6.74354302 2.44921875 3.62890625 C1.64097656 3.09136719 0.83273437 2.55382812 0 2 C0 1.34 0 0.68 0 0 Z " fill="#C6D6FC" transform="translate(417,104)"/>
</svg>
